<svg width="1920" height="400" xmlns="http://www.w3.org/2000/svg">
  <defs>
    <linearGradient id="otherGrad" x1="0%" y1="0%" x2="100%" y2="100%">
      <stop offset="0%" style="stop-color:#9c27b0;stop-opacity:1" />
      <stop offset="100%" style="stop-color:#673ab7;stop-opacity:1" />
    </linearGradient>
  </defs>
  <rect width="1920" height="400" fill="url(#otherGrad)"/>
  <text x="960" y="200" font-family="Arial, sans-serif" font-size="48" font-weight="bold" text-anchor="middle" fill="white">OTHER STYLES</text>
  <text x="960" y="240" font-family="Arial, sans-serif" font-size="24" text-anchor="middle" fill="rgba(255,255,255,0.9)">Specialty & Unique Footwear</text>
  
  <!-- Various shoe silhouettes -->
  <g transform="translate(1200, 150)">
    <!-- Boot -->
    <path d="M0,100 Q20,70 60,75 Q100,80 120,85 Q115,110 80,115 Q40,110 10,105 Q0,102 0,100 Z" fill="rgba(255,255,255,0.25)"/>
    <rect x="10" y="75" width="100" height="40" rx="5" fill="rgba(255,255,255,0.2)"/>
    
    <!-- Sandal -->
    <g transform="translate(150, 20)">
      <ellipse cx="60" cy="60" rx="80" ry="25" fill="rgba(255,255,255,0.25)"/>
      <rect x="20" y="55" width="80" height="5" fill="rgba(255,255,255,0.3)"/>
      <rect x="30" y="48" width="60" height="3" fill="rgba(255,255,255,0.3)"/>
    </g>
    
    <!-- High-top -->
    <g transform="translate(300, -10)">
      <path d="M0,90 Q30,60 80,65 Q130,70 150,75 Q145,100 100,103 Q50,100 15,95 Q0,92 0,90 Z" fill="rgba(255,255,255,0.25)"/>
      <rect x="15" y="50" width="120" height="50" rx="8" fill="rgba(255,255,255,0.2)"/>
    </g>
  </g>
</svg>
